<svg width="92" height="43" viewBox="0 0 92 43" fill="none" xmlns="http://www.w3.org/2000/svg">
<path d="M1.30188 29L1.07788 27.64L2.10188 27.4V19.496L0.981875 19.384V17.944H5.41388C6.17121 17.944 6.81654 18.072 7.34988 18.328C7.88321 18.584 8.28854 18.9307 8.56588 19.368C8.85388 19.8053 8.99788 20.296 8.99788 20.84C8.99788 21.3307 8.89654 21.7573 8.69388 22.12C8.49121 22.472 8.24588 22.7493 7.95788 22.952C7.68054 23.1547 7.42988 23.2827 7.20588 23.336C7.66454 23.4533 8.05921 23.624 8.38988 23.848C8.72054 24.072 8.97654 24.3653 9.15788 24.728C9.34988 25.08 9.44588 25.5067 9.44588 26.008C9.44588 27.0107 9.11521 27.7627 8.45388 28.264C7.80321 28.7547 6.94988 29 5.89388 29H1.30188ZM4.19788 27.32H5.38188C5.72321 27.32 6.03254 27.2773 6.30988 27.192C6.59788 27.096 6.82721 26.9413 6.99788 26.728C7.16854 26.504 7.25388 26.2 7.25388 25.816C7.25388 25.2827 7.06721 24.8933 6.69388 24.648C6.33121 24.392 5.80854 24.264 5.12587 24.264H4.19788V27.32ZM4.19788 22.584H5.14188C5.51521 22.584 5.82454 22.52 6.06988 22.392C6.31521 22.264 6.49654 22.088 6.61388 21.864C6.74188 21.6293 6.80588 21.368 6.80588 21.08C6.80588 20.5467 6.61388 20.1733 6.22988 19.96C5.85654 19.736 5.41921 19.624 4.91788 19.624H4.19788V22.584ZM13.9371 29.064C13.3505 29.064 12.7851 28.9147 12.2411 28.616C11.7078 28.3067 11.2705 27.8533 10.9291 27.256C10.5878 26.6587 10.4171 25.928 10.4171 25.064C10.4171 24.2 10.5878 23.48 10.9291 22.904C11.2705 22.3173 11.7078 21.88 12.2411 21.592C12.7851 21.2933 13.3505 21.144 13.9371 21.144C14.5238 21.144 15.0838 21.2933 15.6171 21.592C16.1611 21.88 16.6038 22.3173 16.9451 22.904C17.2971 23.48 17.4731 24.2 17.4731 25.064C17.4731 25.928 17.2971 26.6587 16.9451 27.256C16.6038 27.8533 16.1611 28.3067 15.6171 28.616C15.0838 28.9147 14.5238 29.064 13.9371 29.064ZM13.9371 27.56C14.2251 27.56 14.4865 27.4853 14.7211 27.336C14.9558 27.1867 15.1425 26.936 15.2811 26.584C15.4198 26.232 15.4891 25.7573 15.4891 25.16C15.4891 24.552 15.4198 24.0667 15.2811 23.704C15.1425 23.3307 14.9558 23.064 14.7211 22.904C14.4865 22.7333 14.2251 22.648 13.9371 22.648C13.7345 22.648 13.5371 22.696 13.3451 22.792C13.1638 22.8773 12.9985 23.0213 12.8491 23.224C12.7105 23.4267 12.5985 23.688 12.5131 24.008C12.4385 24.328 12.4011 24.712 12.4011 25.16C12.4011 25.7573 12.4705 26.232 12.6091 26.584C12.7478 26.936 12.9345 27.1867 13.1691 27.336C13.4038 27.4853 13.6598 27.56 13.9371 27.56ZM18.3878 29L18.2118 27.992L19.1078 27.768V18.632H18.2758L18.0998 17.544L20.4838 17.208L21.0438 17.8V27.736L22.0838 27.992V29H18.3878ZM25.7689 29.064C25.4169 29.064 25.0862 29 24.7769 28.872C24.4782 28.744 24.2329 28.5147 24.0409 28.184C23.8489 27.8533 23.7529 27.3893 23.7529 26.792L23.7849 22.6H22.5689L22.3289 21.304L22.4409 21.144H23.8009L23.8329 18.456L25.5449 18.088L25.6889 18.344V21.144H27.3049C27.3582 21.144 27.3849 21.176 27.3849 21.24V22.6H25.6889V26.776C25.6889 27.1067 25.7315 27.3147 25.8169 27.4C25.9022 27.4747 26.0249 27.512 26.1849 27.512C26.3662 27.512 26.5635 27.4533 26.7769 27.336C26.9902 27.2187 27.1449 27.1227 27.2409 27.048L27.6409 28.344C27.5022 28.504 27.2569 28.664 26.9049 28.824C26.5529 28.984 26.1742 29.064 25.7689 29.064ZM31.7965 29.064C31.2098 29.064 30.6445 28.9147 30.1005 28.616C29.5672 28.3067 29.1298 27.8533 28.7885 27.256C28.4472 26.6587 28.2765 25.928 28.2765 25.064C28.2765 24.2 28.4472 23.48 28.7885 22.904C29.1298 22.3173 29.5672 21.88 30.1005 21.592C30.6445 21.2933 31.2098 21.144 31.7965 21.144C32.3832 21.144 32.9432 21.2933 33.4765 21.592C34.0205 21.88 34.4632 22.3173 34.8045 22.904C35.1565 23.48 35.3325 24.2 35.3325 25.064C35.3325 25.928 35.1565 26.6587 34.8045 27.256C34.4632 27.8533 34.0205 28.3067 33.4765 28.616C32.9432 28.9147 32.3832 29.064 31.7965 29.064ZM31.7965 27.56C32.0845 27.56 32.3458 27.4853 32.5805 27.336C32.8152 27.1867 33.0018 26.936 33.1405 26.584C33.2792 26.232 33.3485 25.7573 33.3485 25.16C33.3485 24.552 33.2792 24.0667 33.1405 23.704C33.0018 23.3307 32.8152 23.064 32.5805 22.904C32.3458 22.7333 32.0845 22.648 31.7965 22.648C31.5938 22.648 31.3965 22.696 31.2045 22.792C31.0232 22.8773 30.8578 23.0213 30.7085 23.224C30.5698 23.4267 30.4578 23.688 30.3725 24.008C30.2978 24.328 30.2605 24.712 30.2605 25.16C30.2605 25.7573 30.3298 26.232 30.4685 26.584C30.6072 26.936 30.7938 27.1867 31.0285 27.336C31.2632 27.4853 31.5192 27.56 31.7965 27.56ZM36.4068 29L36.2308 27.976L37.1268 27.768V22.632H36.3108L36.1348 21.544L38.5028 21.128L39.0628 21.72C39.2654 21.5707 39.5374 21.4373 39.8788 21.32C40.2201 21.2027 40.5668 21.144 40.9188 21.144C41.3668 21.144 41.7774 21.2187 42.1508 21.368C42.5241 21.5173 42.8228 21.7467 43.0468 22.056C43.2708 22.3653 43.3828 22.7653 43.3828 23.256V27.832L44.2628 27.976L44.2468 29H40.6468V27.976L41.4468 27.8V23.704C41.4468 23.3627 41.3561 23.112 41.1748 22.952C41.0041 22.792 40.7641 22.712 40.4548 22.712C40.1454 22.712 39.8521 22.792 39.5748 22.952C39.3081 23.1013 39.1374 23.2187 39.0628 23.304V27.8L39.9748 27.992L39.9588 29H36.4068ZM29.4181 42.064C28.7035 42.064 28.0208 41.952 27.3701 41.728C26.7195 41.504 26.1435 41.168 25.6421 40.72C25.1408 40.2613 24.7461 39.696 24.4581 39.024C24.1701 38.3413 24.0261 37.552 24.0261 36.656C24.0261 35.7173 24.1755 34.896 24.4741 34.192C24.7728 33.4773 25.1728 32.88 25.6741 32.4C26.1861 31.92 26.7568 31.5573 27.3861 31.312C28.0155 31.0667 28.6555 30.944 29.3061 30.944C30.0208 30.944 30.6075 30.9973 31.0661 31.104C31.5248 31.2 31.8395 31.2747 32.0101 31.328L32.3301 34.64H31.0341L30.0901 32.656C30.0155 32.6453 29.9355 32.64 29.8501 32.64C29.7648 32.6293 29.6368 32.624 29.4661 32.624C28.8795 32.624 28.3355 32.7787 27.8341 33.088C27.3435 33.3973 26.9488 33.8347 26.6501 34.4C26.3515 34.9653 26.1915 35.6427 26.1701 36.432C26.1808 37.2 26.3248 37.8827 26.6021 38.48C26.8795 39.0667 27.2635 39.5307 27.7541 39.872C28.2555 40.2133 28.8368 40.384 29.4981 40.384C29.9355 40.384 30.3728 40.304 30.8101 40.144C31.2581 39.984 31.6315 39.7493 31.9301 39.44L32.6021 40.864C32.4101 41.088 32.1435 41.2907 31.8021 41.472C31.4715 41.6533 31.0981 41.7973 30.6821 41.904C30.2661 42.0107 29.8448 42.064 29.4181 42.064ZM36.987 42.064C36.379 42.064 35.7977 41.9253 35.243 41.648C34.6883 41.36 34.235 40.928 33.883 40.352C33.531 39.776 33.355 39.0507 33.355 38.176C33.355 37.2373 33.531 36.4747 33.883 35.888C34.2457 35.2907 34.699 34.8533 35.243 34.576C35.7977 34.288 36.3577 34.144 36.923 34.144C37.371 34.144 37.803 34.224 38.219 34.384C38.635 34.5333 38.9763 34.7733 39.243 35.104C39.5203 35.424 39.659 35.8347 39.659 36.336C39.659 36.784 39.563 37.168 39.371 37.488C39.1897 37.808 38.9337 38.0693 38.603 38.272C38.283 38.4747 37.915 38.624 37.499 38.72C37.083 38.816 36.6457 38.8587 36.187 38.848L35.371 38.832C35.435 39.312 35.611 39.7173 35.899 40.048C36.187 40.3787 36.6563 40.544 37.307 40.544C37.7977 40.544 38.1923 40.4533 38.491 40.272C38.7897 40.08 39.035 39.8933 39.227 39.712L39.595 41.104C39.499 41.232 39.3283 41.3707 39.083 41.52C38.8377 41.6693 38.5337 41.7973 38.171 41.904C37.819 42.0107 37.4243 42.064 36.987 42.064ZM35.387 37.488L35.915 37.504C36.1177 37.5147 36.3203 37.504 36.523 37.472C36.7363 37.4293 36.9283 37.3653 37.099 37.28C37.2803 37.1947 37.4243 37.0827 37.531 36.944C37.6377 36.7947 37.691 36.6133 37.691 36.4C37.691 36.1547 37.6217 35.9733 37.483 35.856C37.3443 35.728 37.1683 35.664 36.955 35.664C36.699 35.664 36.4537 35.7493 36.219 35.92C35.995 36.08 35.8083 36.2987 35.659 36.576C35.5097 36.8533 35.419 37.1573 35.387 37.488ZM40.8286 42L40.6526 40.976L41.5486 40.768V35.632H40.7326L40.5566 34.544L42.9246 34.128L43.4846 34.72C43.6873 34.5707 43.9593 34.4373 44.3006 34.32C44.642 34.2027 44.9886 34.144 45.3406 34.144C45.7886 34.144 46.1993 34.2187 46.5726 34.368C46.946 34.5173 47.2446 34.7467 47.4686 35.056C47.6926 35.3653 47.8046 35.7653 47.8046 36.256V40.832L48.6846 40.976L48.6686 42H45.0686V40.976L45.8686 40.8V36.704C45.8686 36.3627 45.778 36.112 45.5966 35.952C45.426 35.792 45.186 35.712 44.8766 35.712C44.5673 35.712 44.274 35.792 43.9966 35.952C43.73 36.1013 43.5593 36.2187 43.4846 36.304V40.8L44.3966 40.992L44.3806 42H40.8286ZM52.347 42.064C51.995 42.064 51.6643 42 51.355 41.872C51.0563 41.744 50.811 41.5147 50.619 41.184C50.427 40.8533 50.331 40.3893 50.331 39.792L50.363 35.6H49.147L48.907 34.304L49.019 34.144H50.379L50.411 31.456L52.123 31.088L52.267 31.344V34.144H53.883C53.9363 34.144 53.963 34.176 53.963 34.24V35.6H52.267V39.776C52.267 40.1067 52.3097 40.3147 52.395 40.4C52.4803 40.4747 52.603 40.512 52.763 40.512C52.9443 40.512 53.1417 40.4533 53.355 40.336C53.5683 40.2187 53.723 40.1227 53.819 40.048L54.219 41.344C54.0803 41.504 53.835 41.664 53.483 41.824C53.131 41.984 52.7523 42.064 52.347 42.064ZM55.0946 42L54.8546 40.976L55.8146 40.72V35.584L54.9986 35.648L54.8226 34.56L57.0466 34.144L57.5906 34.976C57.804 34.7093 58.06 34.5067 58.3586 34.368C58.6573 34.2187 58.9453 34.144 59.2226 34.144C59.692 34.144 60.1133 34.256 60.4866 34.48C60.8706 34.6933 61.1373 35.0453 61.2866 35.536L59.3506 36.544L58.8706 35.744C58.7426 35.744 58.588 35.7973 58.4066 35.904C58.236 36.0107 58.0813 36.1867 57.9426 36.432C57.8146 36.6773 57.7506 37.008 57.7506 37.424V40.416L59.6866 40.976L59.7026 42H55.0946ZM65.2682 42.064C64.6603 42.064 64.0789 41.9253 63.5243 41.648C62.9696 41.36 62.5163 40.928 62.1643 40.352C61.8123 39.776 61.6363 39.0507 61.6363 38.176C61.6363 37.2373 61.8123 36.4747 62.1643 35.888C62.5269 35.2907 62.9803 34.8533 63.5243 34.576C64.0789 34.288 64.6389 34.144 65.2043 34.144C65.6523 34.144 66.0843 34.224 66.5003 34.384C66.9163 34.5333 67.2576 34.7733 67.5243 35.104C67.8016 35.424 67.9403 35.8347 67.9403 36.336C67.9403 36.784 67.8443 37.168 67.6523 37.488C67.4709 37.808 67.2149 38.0693 66.8843 38.272C66.5643 38.4747 66.1963 38.624 65.7803 38.72C65.3643 38.816 64.9269 38.8587 64.4683 38.848L63.6523 38.832C63.7163 39.312 63.8923 39.7173 64.1803 40.048C64.4683 40.3787 64.9376 40.544 65.5883 40.544C66.0789 40.544 66.4736 40.4533 66.7723 40.272C67.0709 40.08 67.3163 39.8933 67.5083 39.712L67.8763 41.104C67.7803 41.232 67.6096 41.3707 67.3643 41.52C67.1189 41.6693 66.8149 41.7973 66.4523 41.904C66.1003 42.0107 65.7056 42.064 65.2682 42.064ZM63.6683 37.488L64.1963 37.504C64.3989 37.5147 64.6016 37.504 64.8043 37.472C65.0176 37.4293 65.2096 37.3653 65.3802 37.28C65.5616 37.1947 65.7056 37.0827 65.8123 36.944C65.9189 36.7947 65.9723 36.6133 65.9723 36.4C65.9723 36.1547 65.9029 35.9733 65.7643 35.856C65.6256 35.728 65.4496 35.664 65.2363 35.664C64.9803 35.664 64.7349 35.7493 64.5003 35.92C64.2763 36.08 64.0896 36.2987 63.9403 36.576C63.7909 36.8533 63.7003 37.1573 63.6683 37.488Z" fill="#ED80FD"/>
<path d="M36.5381 16.1783C35.9898 15.8917 35.4997 15.5514 35.0679 15.1571C34.6409 14.7535 34.2779 14.3772 33.9789 14.0283L35.6928 11.4398L36.8321 12.1616L36.1229 13.7949C36.2309 13.8875 36.3741 14.0165 36.5525 14.1819C36.7403 14.3522 36.9665 14.5066 37.2312 14.6449C37.5337 14.803 37.8276 14.9085 38.1129 14.9613C38.4126 15.0097 38.6826 14.9883 38.9228 14.8972C39.1724 14.811 39.3689 14.6308 39.5122 14.3567C39.6456 14.1015 39.6881 13.8589 39.6397 13.629C39.5963 13.3897 39.4793 13.1299 39.2887 12.8498C39.1125 12.5651 38.8681 12.2268 38.5555 11.8347C38.2758 11.4719 38.0244 11.1238 37.8014 10.7906C37.5833 10.448 37.4129 10.1062 37.2902 9.76521C37.1769 9.42921 37.1307 9.08009 37.1516 8.71786C37.1773 8.34619 37.3014 7.94765 37.5237 7.52224C37.8103 6.97395 38.2038 6.57786 38.7044 6.33399C39.2144 6.09505 39.7768 5.9978 40.3914 6.04224C41.0156 6.09161 41.6301 6.27441 42.2351 6.59062C42.7267 6.84754 43.1843 7.13486 43.608 7.45259C44.0412 7.77526 44.4149 8.08493 44.7292 8.38161L43.5338 11.187L42.3427 10.5644L42.4335 8.69821C42.3204 8.61507 42.1791 8.51711 42.0093 8.40433C41.8396 8.29155 41.6744 8.19316 41.5137 8.10917C41.1828 7.93624 40.8815 7.84495 40.6097 7.8353C40.3523 7.82113 40.1296 7.86723 39.9417 7.97359C39.7537 8.07995 39.6078 8.23239 39.5041 8.43091C39.4052 8.61998 39.373 8.81978 39.4074 9.03032C39.4562 9.23636 39.543 9.45023 39.6678 9.67194C39.8071 9.88913 39.9582 10.1065 40.1213 10.3242C40.2988 10.5373 40.4643 10.7502 40.618 10.9629C41.0374 11.5191 41.3575 12.0234 41.5784 12.4758C41.8087 12.9332 41.9272 13.3743 41.9339 13.799C41.9406 14.2238 41.8254 14.663 41.5882 15.1168C41.3115 15.6462 40.9729 16.0409 40.5722 16.3008C40.181 16.5658 39.7535 16.7275 39.2896 16.7859C38.8307 16.8349 38.3614 16.8003 37.8816 16.6819C37.4113 16.5685 36.9635 16.4006 36.5381 16.1783ZM44.1573 20.1605C43.7981 19.9728 43.4662 19.7211 43.1618 19.4055C42.8623 19.0805 42.6329 18.7018 42.4737 18.2696C42.3145 17.8373 42.249 17.3638 42.2774 16.849C42.3201 16.3298 42.4971 15.7723 42.8083 15.1768C43.1789 14.4678 43.5822 13.9263 44.0183 13.5525C44.4545 13.1786 44.8954 12.9337 45.3412 12.8177C45.787 12.7016 46.2191 12.6807 46.6377 12.7551C47.0706 12.8249 47.4619 12.9512 47.8117 13.134C48.2276 13.3514 48.5478 13.5909 48.7721 13.8526C49.0108 14.1097 49.1804 14.3609 49.281 14.606C49.391 14.8561 49.4562 15.0767 49.4766 15.2679C49.502 15.4497 49.5165 15.5716 49.5202 15.6337L47.3226 15.6586L47.1576 14.4891L47.0441 14.4298C46.8645 14.336 46.6647 14.3037 46.4447 14.3332C46.2391 14.3581 46.0252 14.4449 45.8031 14.5936C45.5859 14.7329 45.3726 14.9222 45.1631 15.1618C44.9631 15.4063 44.7767 15.694 44.6037 16.0249C44.411 16.3935 44.2874 16.7682 44.2329 17.1489C44.1833 17.5202 44.2247 17.8668 44.3573 18.1889C44.5043 18.5064 44.7716 18.7665 45.1592 18.969C45.4333 19.1123 45.6966 19.1958 45.949 19.2194C46.2015 19.243 46.4258 19.2399 46.6219 19.21C46.8325 19.1756 46.9929 19.1451 47.1031 19.1184L46.827 20.5448C46.4334 20.6761 46.0035 20.7042 45.5373 20.629C45.0711 20.5538 44.6111 20.3977 44.1573 20.1605ZM49.9947 23.2114C49.5504 22.9792 49.2024 22.701 48.9506 22.3768C48.6987 22.0527 48.5645 21.6876 48.548 21.2818C48.5364 20.8665 48.6565 20.4178 48.9085 19.9357L50.7761 16.3623L50.053 15.9843L50.3935 14.9528L52.6923 15.6668L52.9069 16.465L50.7948 20.5063C50.7009 20.6859 50.6405 20.859 50.6137 21.0255C50.5918 21.1825 50.5987 21.3306 50.6343 21.4696C50.67 21.6086 50.7322 21.7313 50.8209 21.8379C50.9241 21.9399 51.0465 22.028 51.1883 22.1021C51.4436 22.2355 51.7194 22.2834 52.0159 22.2458C52.3124 22.2082 52.5479 22.1146 52.7223 21.9651L54.627 18.3208L53.9666 18.0298L54.293 16.9908L56.5209 17.6678L56.7356 18.466L54.1491 23.4149C54.0848 23.5378 54.064 23.6352 54.0865 23.7072C54.1141 23.7697 54.1562 23.8158 54.2129 23.8454C54.2602 23.8701 54.3052 23.8876 54.3479 23.8979C54.3907 23.9082 54.4168 23.9159 54.4262 23.9208L54.2806 24.8557C54.1893 24.8922 54.0123 24.9201 53.7495 24.9392C53.4962 24.9633 53.2231 24.8987 52.93 24.7456C52.6842 24.6171 52.4845 24.4465 52.3309 24.2338C52.1867 24.0261 52.1221 23.7697 52.1372 23.4646C51.7962 23.5873 51.4307 23.6189 51.0405 23.5594C50.6553 23.4905 50.3067 23.3745 49.9947 23.2114ZM55.6832 26.1845L55.4295 25.5645L60.0837 16.6594L59.3241 16.3166L59.6721 15.2708L61.9332 16.0915L62.1559 16.8397L60.4587 20.087C60.6495 20.0904 60.8565 20.1204 61.0797 20.1768C61.3174 20.2288 61.5685 20.324 61.8332 20.4623C62.4004 20.7588 62.8203 21.1528 63.093 21.6443C63.3657 22.1359 63.482 22.6962 63.4421 23.3252C63.4166 23.9498 63.2186 24.6165 62.848 25.3255C62.4873 26.0156 62.0936 26.5501 61.667 26.9289C61.2453 27.2982 60.8115 27.5409 60.3657 27.657C59.9199 27.773 59.4759 27.7936 59.0335 27.7189C58.5961 27.6347 58.1836 27.4913 57.796 27.2888C57.5313 27.1504 57.2978 26.9983 57.0957 26.8325C56.8984 26.6572 56.73 26.4729 56.5903 26.2795L55.6832 26.1845ZM58.4926 25.9558C58.7479 26.0892 59.019 26.1347 59.306 26.0921C59.6075 26.045 59.9036 25.8929 60.1945 25.6357C60.4998 25.374 60.7858 24.9879 61.0526 24.4775C61.3095 23.9859 61.4581 23.552 61.4982 23.1758C61.5528 22.7951 61.5156 22.4748 61.3867 22.2148C61.2577 21.9549 61.0609 21.7557 60.7962 21.6174C60.6166 21.5235 60.4341 21.4582 60.2487 21.4215C60.0727 21.3897 59.913 21.3844 59.7695 21.4057L57.724 25.3194C57.7794 25.4206 57.8823 25.5346 58.0327 25.6613C58.1881 25.7786 58.3414 25.8768 58.4926 25.9558ZM63.8654 30.4609C63.4305 30.2337 63.0991 29.9581 62.8711 29.6344C62.6576 29.3061 62.5445 28.9582 62.5321 28.5906C62.5245 28.2135 62.6121 27.8501 62.795 27.5004C63.0124 27.0844 63.2992 26.789 63.6553 26.6141C64.021 26.4441 64.4185 26.363 64.8477 26.3707C65.2914 26.3739 65.7362 26.4439 66.1822 26.5807C66.6332 26.7081 67.0549 26.8684 67.4475 27.0615L68.0329 25.9413C68.0873 25.8373 68.0611 25.7032 67.9543 25.5391C67.8619 25.3704 67.655 25.2021 67.3336 25.0341C67.2579 24.9946 67.1798 24.9598 67.0993 24.9297C67.0237 24.8902 66.9573 24.8675 66.9001 24.8617L65.983 25.7184L64.6249 24.0337C65.0556 23.6931 65.5985 23.4834 66.2536 23.4045C66.9086 23.3256 67.567 23.4591 68.2287 23.805C68.6352 24.0174 68.9858 24.2909 69.2803 24.6254C69.5749 24.9599 69.7539 25.3543 69.8173 25.8087C69.8902 26.268 69.7759 26.786 69.4745 27.3627L67.807 30.5532C67.7428 30.6761 67.7219 30.7735 67.7445 30.8455C67.7814 30.9129 67.833 30.964 67.8992 30.9986C67.9465 31.0233 67.9915 31.0408 68.0342 31.0511C68.0864 31.0663 68.1173 31.0764 68.1267 31.0814L67.9669 32.0088C67.8711 32.031 67.6893 32.0563 67.4217 32.0849C67.1589 32.1041 66.881 32.0371 66.5879 31.8839C66.3043 31.7357 66.1001 31.5507 65.9753 31.329C65.8599 31.1122 65.8046 30.8727 65.8093 30.6103C65.5214 30.7006 65.2058 30.7403 64.8625 30.7293C64.5286 30.7233 64.1962 30.6339 63.8654 30.4609ZM64.9172 29.2775C65.1819 29.4159 65.4458 29.4635 65.709 29.4206C65.9866 29.3731 66.198 29.291 66.3432 29.1743L66.8249 28.2526C66.6404 28.1682 66.4414 28.0883 66.2281 28.0129C66.0147 27.9375 65.801 27.8859 65.5868 27.8582C65.382 27.8355 65.1908 27.8559 65.0131 27.9195C64.8498 27.9786 64.7188 28.1027 64.62 28.2917C64.536 28.4524 64.5089 28.6309 64.5388 28.827C64.5736 29.0137 64.6997 29.1639 64.9172 29.2775Z" fill="#39D1DC"/>
</svg>
